<svg xmlns:dc="http://purl.org/dc/elements/1.1/" xmlns:cc="http://creativecommons.org/ns#" xmlns:rdf="http://www.w3.org/1999/02/22-rdf-syntax-ns#" xmlns:svg="http://www.w3.org/2000/svg" xmlns="http://www.w3.org/2000/svg" xmlns:sodipodi="http://sodipodi.sourceforge.net/DTD/sodipodi-0.dtd" xmlns:inkscape="http://www.inkscape.org/namespaces/inkscape" width="1048" height="244" id="svg2" version="1.1" inkscape:version="0.48.5 r10040">
  <defs id="defs4"/>
<g inkscape:label="Layer 0" inkscape:groupmode="layer" id="layer0" transform="translate(0,0)">
<rect style="fill:#00f;stroke:#000;stroke-width:4;" width="60" height="30" x="32" y="2"/>
<rect style="fill:#666;stroke:#000;stroke-width:4;" width="60" height="30" x="92" y="2"/>
<rect style="fill:#f80;stroke:#000;stroke-width:4;" width="60" height="30" x="152" y="2"/>
<rect style="fill:#ff0;stroke:#000;stroke-width:4;" width="30" height="60" x="2" y="32"/>
<rect style="fill:#f80;stroke:#000;stroke-width:4;" width="60" height="60" x="32" y="32"/>
<rect style="fill:#666;stroke:#000;stroke-width:4;" width="60" height="60" x="92" y="32"/>
<rect style="fill:#fff;stroke:#000;stroke-width:4;" width="60" height="60" x="152" y="32"/>
<rect style="fill:#00f;stroke:#000;stroke-width:4;" width="30" height="60" x="212" y="32"/>
<rect style="fill:#666;stroke:#000;stroke-width:4;" width="30" height="60" x="2" y="92"/>
<rect style="fill:#666;stroke:#000;stroke-width:4;" width="60" height="60" x="32" y="92"/>
<rect style="fill:#666;stroke:#000;stroke-width:4;" width="60" height="60" x="92" y="92"/>
<rect style="fill:#666;stroke:#000;stroke-width:4;" width="60" height="60" x="152" y="92"/>
<rect style="fill:#666;stroke:#000;stroke-width:4;" width="30" height="60" x="212" y="92"/>
<rect style="fill:#0f0;stroke:#000;stroke-width:4;" width="30" height="60" x="2" y="152"/>
<rect style="fill:#ff0;stroke:#000;stroke-width:4;" width="60" height="60" x="32" y="152"/>
<rect style="fill:#666;stroke:#000;stroke-width:4;" width="60" height="60" x="92" y="152"/>
<rect style="fill:#0f0;stroke:#000;stroke-width:4;" width="60" height="60" x="152" y="152"/>
<rect style="fill:#f80;stroke:#000;stroke-width:4;" width="30" height="60" x="212" y="152"/>
<rect style="fill:#f80;stroke:#000;stroke-width:4;" width="60" height="30" x="32" y="212"/>
<rect style="fill:#666;stroke:#000;stroke-width:4;" width="60" height="30" x="92" y="212"/>
<rect style="fill:#fff;stroke:#000;stroke-width:4;" width="60" height="30" x="152" y="212"/>
</g>
<g inkscape:label="Layer 1" inkscape:groupmode="layer" id="layer1" transform="translate(268,0)">
<rect style="fill:#ff0;stroke:#000;stroke-width:4;" width="60" height="30" x="32" y="2"/>
<rect style="fill:#666;stroke:#000;stroke-width:4;" width="60" height="30" x="92" y="2"/>
<rect style="fill:#f80;stroke:#000;stroke-width:4;" width="60" height="30" x="152" y="2"/>
<rect style="fill:#0f0;stroke:#000;stroke-width:4;" width="30" height="60" x="2" y="32"/>
<rect style="fill:#f80;stroke:#000;stroke-width:4;" width="60" height="60" x="32" y="32"/>
<rect style="fill:#666;stroke:#000;stroke-width:4;" width="60" height="60" x="92" y="32"/>
<rect style="fill:#00f;stroke:#000;stroke-width:4;" width="60" height="60" x="152" y="32"/>
<rect style="fill:#ff0;stroke:#000;stroke-width:4;" width="30" height="60" x="212" y="32"/>
<rect style="fill:#666;stroke:#000;stroke-width:4;" width="30" height="60" x="2" y="92"/>
<rect style="fill:#666;stroke:#000;stroke-width:4;" width="60" height="60" x="32" y="92"/>
<rect style="fill:#666;stroke:#000;stroke-width:4;" width="60" height="60" x="92" y="92"/>
<rect style="fill:#666;stroke:#000;stroke-width:4;" width="60" height="60" x="152" y="92"/>
<rect style="fill:#666;stroke:#000;stroke-width:4;" width="30" height="60" x="212" y="92"/>
<rect style="fill:#fff;stroke:#000;stroke-width:4;" width="30" height="60" x="2" y="152"/>
<rect style="fill:#0f0;stroke:#000;stroke-width:4;" width="60" height="60" x="32" y="152"/>
<rect style="fill:#666;stroke:#000;stroke-width:4;" width="60" height="60" x="92" y="152"/>
<rect style="fill:#fff;stroke:#000;stroke-width:4;" width="60" height="60" x="152" y="152"/>
<rect style="fill:#f80;stroke:#000;stroke-width:4;" width="30" height="60" x="212" y="152"/>
<rect style="fill:#f80;stroke:#000;stroke-width:4;" width="60" height="30" x="32" y="212"/>
<rect style="fill:#666;stroke:#000;stroke-width:4;" width="60" height="30" x="92" y="212"/>
<rect style="fill:#00f;stroke:#000;stroke-width:4;" width="60" height="30" x="152" y="212"/>
</g>
<g inkscape:label="Layer 2" inkscape:groupmode="layer" id="layer2" transform="translate(536,0)">
<rect style="fill:#0f0;stroke:#000;stroke-width:4;" width="60" height="30" x="32" y="2"/>
<rect style="fill:#666;stroke:#000;stroke-width:4;" width="60" height="30" x="92" y="2"/>
<rect style="fill:#f80;stroke:#000;stroke-width:4;" width="60" height="30" x="152" y="2"/>
<rect style="fill:#fff;stroke:#000;stroke-width:4;" width="30" height="60" x="2" y="32"/>
<rect style="fill:#f80;stroke:#000;stroke-width:4;" width="60" height="60" x="32" y="32"/>
<rect style="fill:#666;stroke:#000;stroke-width:4;" width="60" height="60" x="92" y="32"/>
<rect style="fill:#ff0;stroke:#000;stroke-width:4;" width="60" height="60" x="152" y="32"/>
<rect style="fill:#0f0;stroke:#000;stroke-width:4;" width="30" height="60" x="212" y="32"/>
<rect style="fill:#666;stroke:#000;stroke-width:4;" width="30" height="60" x="2" y="92"/>
<rect style="fill:#666;stroke:#000;stroke-width:4;" width="60" height="60" x="32" y="92"/>
<rect style="fill:#666;stroke:#000;stroke-width:4;" width="60" height="60" x="92" y="92"/>
<rect style="fill:#666;stroke:#000;stroke-width:4;" width="60" height="60" x="152" y="92"/>
<rect style="fill:#666;stroke:#000;stroke-width:4;" width="30" height="60" x="212" y="92"/>
<rect style="fill:#00f;stroke:#000;stroke-width:4;" width="30" height="60" x="2" y="152"/>
<rect style="fill:#fff;stroke:#000;stroke-width:4;" width="60" height="60" x="32" y="152"/>
<rect style="fill:#666;stroke:#000;stroke-width:4;" width="60" height="60" x="92" y="152"/>
<rect style="fill:#00f;stroke:#000;stroke-width:4;" width="60" height="60" x="152" y="152"/>
<rect style="fill:#f80;stroke:#000;stroke-width:4;" width="30" height="60" x="212" y="152"/>
<rect style="fill:#f80;stroke:#000;stroke-width:4;" width="60" height="30" x="32" y="212"/>
<rect style="fill:#666;stroke:#000;stroke-width:4;" width="60" height="30" x="92" y="212"/>
<rect style="fill:#ff0;stroke:#000;stroke-width:4;" width="60" height="30" x="152" y="212"/>
</g>
<g inkscape:label="Layer 3" inkscape:groupmode="layer" id="layer3" transform="translate(804,0)">
<rect style="fill:#fff;stroke:#000;stroke-width:4;" width="60" height="30" x="32" y="2"/>
<rect style="fill:#666;stroke:#000;stroke-width:4;" width="60" height="30" x="92" y="2"/>
<rect style="fill:#f80;stroke:#000;stroke-width:4;" width="60" height="30" x="152" y="2"/>
<rect style="fill:#00f;stroke:#000;stroke-width:4;" width="30" height="60" x="2" y="32"/>
<rect style="fill:#f80;stroke:#000;stroke-width:4;" width="60" height="60" x="32" y="32"/>
<rect style="fill:#666;stroke:#000;stroke-width:4;" width="60" height="60" x="92" y="32"/>
<rect style="fill:#0f0;stroke:#000;stroke-width:4;" width="60" height="60" x="152" y="32"/>
<rect style="fill:#fff;stroke:#000;stroke-width:4;" width="30" height="60" x="212" y="32"/>
<rect style="fill:#666;stroke:#000;stroke-width:4;" width="30" height="60" x="2" y="92"/>
<rect style="fill:#666;stroke:#000;stroke-width:4;" width="60" height="60" x="32" y="92"/>
<rect style="fill:#666;stroke:#000;stroke-width:4;" width="60" height="60" x="92" y="92"/>
<rect style="fill:#666;stroke:#000;stroke-width:4;" width="60" height="60" x="152" y="92"/>
<rect style="fill:#666;stroke:#000;stroke-width:4;" width="30" height="60" x="212" y="92"/>
<rect style="fill:#ff0;stroke:#000;stroke-width:4;" width="30" height="60" x="2" y="152"/>
<rect style="fill:#00f;stroke:#000;stroke-width:4;" width="60" height="60" x="32" y="152"/>
<rect style="fill:#666;stroke:#000;stroke-width:4;" width="60" height="60" x="92" y="152"/>
<rect style="fill:#ff0;stroke:#000;stroke-width:4;" width="60" height="60" x="152" y="152"/>
<rect style="fill:#f80;stroke:#000;stroke-width:4;" width="30" height="60" x="212" y="152"/>
<rect style="fill:#f80;stroke:#000;stroke-width:4;" width="60" height="30" x="32" y="212"/>
<rect style="fill:#666;stroke:#000;stroke-width:4;" width="60" height="30" x="92" y="212"/>
<rect style="fill:#0f0;stroke:#000;stroke-width:4;" width="60" height="30" x="152" y="212"/>
</g>
</svg>
